<svg xmlns="http://www.w3.org/2000/svg" width="192" height="192" viewBox="0 0 192 192">
  <defs>
    <linearGradient id="bg" x1="0" y1="0" x2="1" y2="1">
      <stop offset="0%" stop-color="#1a1a3a"/>
      <stop offset="100%" stop-color="#0a0a1a"/>
    </linearGradient>
    <linearGradient id="body" x1="0" y1="0" x2="0" y2="1">
      <stop offset="0%" stop-color="#4a9eff"/>
      <stop offset="100%" stop-color="#2266cc"/>
    </linearGradient>
  </defs>
  <!-- Background -->
  <rect width="192" height="192" rx="38" fill="url(#bg)"/>
  <!-- Controller body -->
  <path d="M40,88 Q40,72 56,72 L84,72 Q96,72 96,60 Q96,72 108,72 L136,72 Q152,72 152,88 L152,108 Q152,130 140,140 L130,148 Q120,156 108,148 L96,138 L84,148 Q72,156 62,148 L52,140 Q40,130 40,108 Z" fill="url(#body)" stroke="#3388dd" stroke-width="2"/>
  <!-- Left grip -->
  <path d="M40,108 Q38,130 50,145 Q58,152 62,148 L52,140 Q40,130 40,108 Z" fill="#3a7acc"/>
  <!-- Right grip -->
  <path d="M152,108 Q154,130 142,145 Q134,152 130,148 L140,140 Q152,130 152,108 Z" fill="#3a7acc"/>
  <!-- D-pad -->
  <rect x="58" y="84" width="20" height="6" rx="2" fill="#1a3a6a"/>
  <rect x="65" y="77" width="6" height="20" rx="2" fill="#1a3a6a"/>
  <!-- Buttons ABXY -->
  <circle cx="124" cy="82" r="5" fill="#ff4455"/>
  <circle cx="134" cy="92" r="5" fill="#44cc55"/>
  <circle cx="114" cy="92" r="5" fill="#ffcc22"/>
  <circle cx="124" cy="102" r="5" fill="#4488ff"/>
  <!-- Joysticks -->
  <circle cx="72" cy="106" r="8" fill="#1a3a6a" stroke="#2a5a8a" stroke-width="1.5"/>
  <circle cx="120" cy="116" r="8" fill="#1a3a6a" stroke="#2a5a8a" stroke-width="1.5"/>
  <!-- Center button -->
  <rect x="88" y="90" width="16" height="8" rx="4" fill="#2a5a8a"/>
  <!-- Shine effect -->
  <ellipse cx="80" cy="74" rx="20" ry="4" fill="white" opacity="0.12"/>
</svg>